<?xml version="1.0" encoding="UTF-8"?>
<svg width="538px" height="236px" viewBox="0 0 538 236" version="1.1" xmlns="http://www.w3.org/2000/svg" xmlns:xlink="http://www.w3.org/1999/xlink">
    <title>Group</title>
    <g id="Page-1" stroke="none" stroke-width="1" fill="none" fill-rule="evenodd">
        <g id="Group" transform="translate(0.500000, 0.000000)">
            <g id="clipart2867367" transform="translate(256.047309, 38.000000)" fill-rule="nonzero">
                <path d="M91.781803,28.1617252 C92.7119595,28.8616343 93.3957593,29.540122 93.9345729,30.5327869 C94.1463764,33.6378237 93.8079306,36.7214706 93.4342053,39.804133 C93.3803755,40.2656409 93.3265458,40.7271488 93.2710849,41.2026418 C93.091366,42.7379601 92.9079395,44.2728824 92.724503,45.8078273 C92.5940867,46.9127824 92.4644548,48.0178153 92.3347842,49.1228449 C92.0195305,51.8052867 91.7015066,54.4874438 91.3825247,57.1695114 C91.0110288,60.2940079 90.6422923,63.4187793 90.2736595,66.5435634 C89.6159936,72.1175774 88.9558213,77.6913371 88.2942338,83.2649573 C87.6523248,88.6728118 87.0122139,94.0808436 86.3740908,99.4890784 C86.3150613,99.9893637 86.3150613,99.9893637 86.2548393,100.499756 C86.1959116,100.99918 86.1959116,100.99918 86.1357934,101.508694 C85.4087874,107.670121 84.6801596,113.831383 83.9507395,119.992568 C83.6928877,122.17086 83.4355078,124.349199 83.1782704,126.527553 C82.8650328,129.179839 82.5508565,131.832029 82.235507,134.484103 C82.0746234,135.83727 81.9142597,137.190485 81.7546943,138.543785 C81.5818121,140.00939 81.4074191,141.474837 81.2326223,142.940249 C81.1571715,143.584337 81.1571715,143.584337 81.0801964,144.241436 C81.033132,144.633313 80.9860677,145.02519 80.9375772,145.428943 C80.897469,145.767222 80.8573608,146.105501 80.8160373,146.454031 C80.6761345,147.371585 80.6761345,147.371585 80.2341866,149 C74.5463165,149 68.8584464,149 62.9982166,149 C64.2539576,138.256403 65.5104295,127.51288 66.7681092,116.769476 C67.3525432,111.776914 67.9366851,106.784324 68.5200843,101.79166 C69.7456117,91.3051033 70.9756066,80.8190145 72.2152979,70.3338698 C72.7834781,65.5252315 73.3461385,60.7161065 73.8999538,55.9060458 C74.2601807,52.7793074 74.6253325,49.6530816 74.9946428,46.5272425 C75.2045305,44.7489247 75.411868,42.9704323 75.6125941,41.1912155 C75.7953502,39.571443 75.9849318,37.9524802 76.1800852,36.3339364 C76.2491172,35.7509777 76.3155794,35.1677549 76.3792161,34.5842755 C76.4656278,33.7951764 76.5622191,33.0070399 76.659335,32.2189978 C76.7099905,31.7818572 76.760646,31.3447167 76.8128365,30.8943294 C77.2918724,29.1756791 78.2257028,28.0603516 79.8751038,27.1487363 C83.4227606,26.3499036 88.5776258,26.5316014 91.781803,28.1617252 Z" id="Path" fill="#040708"></path>
                <path d="M41.149415,26.7416325 C41.7060104,26.7264138 42.2626059,26.7111951 42.8360679,26.6955153 C44.7179839,26.8993514 45.630454,27.402986 47.0880905,28.4972678 C48.0634131,29.8449069 48.1279127,30.4288843 48.257011,32.0132407 C48.298239,32.4958643 48.3394671,32.978488 48.3819444,33.4757366 C48.4236209,34.0105899 48.4652973,34.5454432 48.5082367,35.0965043 C48.555838,35.6715412 48.6037811,36.2465543 48.6520354,36.8215451 C48.7848905,38.4167311 48.91283,40.0122254 49.0400243,41.6078017 C49.17907,43.3413885 49.3226026,45.0746607 49.4655703,46.8079761 C49.7186906,49.8845498 49.9688282,52.9613203 50.2171705,56.0382242 C50.60413,60.8321401 50.9960843,65.6257034 51.3887275,70.4192268 C52.2529144,80.9721375 53.1093115,91.5255795 53.9640384,102.079143 C54.2898922,106.102087 54.6164058,110.124986 54.9430721,114.147874 C55.3006507,118.55156 55.6578589,122.955272 56.0148729,127.358997 C56.1652503,129.213847 56.3157469,131.06869 56.4663394,132.923526 C56.6415203,135.081471 56.8163745,137.239439 56.9909672,139.397425 C57.0549949,140.188173 57.1191352,140.978914 57.1833939,141.769647 C57.2706447,142.843543 57.3574944,143.917467 57.4442359,144.991398 C57.4699407,145.306624 57.4956455,145.62185 57.5221292,145.946629 C57.6948412,148.092828 57.6948412,148.092828 57.6948412,149 C52.0069712,149 46.3191011,149 40.4588713,149 C39.2484602,135.531396 38.0961415,122.059544 36.9947196,108.583016 C36.8728067,107.091384 36.7507589,105.59976 36.6286839,104.108138 C36.2443052,99.4104974 35.8605448,94.7128141 35.477631,90.0150716 C35.0397592,84.643296 34.5996438,79.2716814 34.1577152,73.9001877 C33.8123981,69.701232 33.469113,65.5021378 33.1273433,61.3029358 C32.924624,58.8127813 32.7210636,56.3226912 32.5153297,53.8327464 C32.3229081,51.5033219 32.1330245,49.1737333 31.9450318,46.8440021 C31.8761116,45.9952049 31.8063063,45.1464682 31.7355034,44.2978025 C31.4208637,40.5209166 31.1193189,36.7410175 31.0261257,32.9531029 C31.0115867,32.4525324 30.9970477,31.951962 30.9820682,31.4362228 C31.2170902,29.8639328 31.7559404,29.2135441 32.9457562,28.0901639 C35.2398931,26.6327417 38.4641397,26.7898353 41.149415,26.7416325 Z" id="Path" fill="#040708"></path>
                <path d="M15.1021078,29.6168033 C16.6831478,30.9965388 17.1234145,32.1799143 17.3652576,34.1488147 C17.4417925,34.7516529 17.4417925,34.7516529 17.5198735,35.3666698 C17.5723259,35.8072316 17.6247784,36.2477934 17.6788203,36.7017056 C17.7373265,37.170466 17.7958326,37.6392264 17.8561117,38.1221916 C18.017807,39.4232786 18.1764667,40.7246449 18.3338552,42.0261789 C18.5043322,43.4298138 18.6786976,44.8330393 18.8525827,46.2363187 C19.1926139,48.9854503 19.5290513,51.7349455 19.8642977,54.4845753 C20.2547527,57.6858518 20.648808,60.8867496 21.0430312,64.0876338 C21.7462829,69.7986344 22.4463395,75.5099635 23.1445678,81.2214869 C23.8222521,86.7649304 24.5020433,92.3081499 25.1842612,97.8511216 C25.226272,98.1924598 25.2682829,98.5337979 25.3115668,98.8854797 C25.3535053,99.2262247 25.3954437,99.5669697 25.4386531,99.9180403 C25.5230916,100.604096 25.6075295,101.290151 25.6919667,101.976206 C25.7336077,102.314537 25.7752486,102.652867 25.8181514,103.00145 C26.4679532,108.281737 27.1158885,113.562219 27.7636071,118.842723 C27.9984601,120.757183 28.2335767,122.671616 28.4688808,124.58603 C28.8421436,127.622954 29.2145996,130.65996 29.5853872,133.697141 C29.7548462,135.085092 29.924688,136.473 30.0955912,137.8608 C30.2805464,139.364511 30.4639827,140.868372 30.6470146,142.372282 C30.7014387,142.811936 30.7558629,143.251589 30.8119363,143.704566 C30.8850136,144.308997 30.8850136,144.308997 30.9595673,144.925638 C31.0020492,145.272727 31.0445312,145.619817 31.0883004,145.977424 C31.1795391,146.981815 31.1779662,147.992099 31.1779662,149 C25.4900943,149 19.8022242,149 13.9419945,149 C13.1065887,142.307115 12.2715247,135.614198 11.4408237,128.920816 C11.386157,128.480369 11.3314903,128.039921 11.275167,127.586127 C11.038659,125.680502 10.8021642,123.774876 10.565751,121.869242 C9.65994506,114.56865 8.74993444,107.268513 7.83719742,99.9686539 C6.97959048,93.1092203 6.125064,86.2494642 5.27267643,79.3894785 C4.71431198,74.8966369 4.15365538,70.4040477 3.59020626,65.9117448 C3.19717652,62.776416 2.80697162,59.6407954 2.41884876,56.504948 C2.19130286,54.6672003 1.96252087,52.8296015 1.73047233,50.9923313 C1.51481836,49.2846063 1.30272706,47.5765367 1.09327237,45.8681574 C1.01684513,45.2497768 0.939174921,44.6315251 0.860067626,44.0134305 C0.474074111,40.9920244 0.158316658,37.9678634 0.0576092275,34.9260556 C0.0385981825,34.4429147 0.0195871374,33.9597739 0,33.4619923 C0.313810912,31.7724705 1.03663092,31.197512 2.45134783,30.1256831 C5.55369594,28.5816993 12.0109868,27.8371717 15.1021078,29.6168033 Z" id="Path" fill="#040708"></path>
                <path d="M32.9457562,4.8852459 C34.060756,6.04748022 34.6751379,6.83252376 34.7964132,8.39651639 C33.9859216,9.88969784 32.7860756,10.2646077 31.1779644,10.9918033 C31.1779644,11.6635246 31.1779644,12.3352459 31.1779644,13.0273224 C26.6615359,15.5035343 22.0115088,17.7315776 17.3380666,19.9427203 C16.8434615,20.17697 16.3488564,20.4112197 15.8392632,20.6525679 C15.3639566,20.8769123 14.88865,21.1012567 14.3989402,21.3323995 C12.8684057,22.0757348 11.3800196,22.8734644 9.90490355,23.7061447 C8.51468419,24.2339779 7.35338516,23.6324077 5.98693141,23.204918 C5.0960232,23.5988382 4.21138961,24.0051502 3.33524373,24.4262295 C1.96559037,24.1681613 1.3669466,23.919155 0.545447308,22.8741462 C-0.0618517952,21.0941787 -0.0618517952,21.0941787 0.241608095,19.9480874 C1.13016785,19.3744199 2.02804118,18.9219806 3.00378277,18.4850581 C3.2590077,18.2961364 3.51423264,18.1072148 3.77719167,17.9125683 C3.84168214,16.8709093 3.84168214,16.8709093 3.77719167,15.8770492 C9.50223972,12.9676827 15.2588924,10.1246969 21.0734763,7.36971229 C21.5212949,7.15701147 21.9691136,6.94431065 22.4305025,6.72516436 C22.8291846,6.53666913 23.2278668,6.3481739 23.6386302,6.15396669 C24.5183142,5.76610795 24.5183142,5.76610795 24.9906931,5.29234973 C26.2889152,5.21601776 26.2889152,5.21601776 27.6423808,5.29234973 C27.9340665,5.56103825 28.2257521,5.82972678 28.5262767,6.10655738 C28.8453079,5.90504098 29.1643391,5.70352459 29.4930379,5.49590164 C30.8466053,4.83091534 31.4497412,4.56723068 32.9457562,4.8852459 Z" id="Path" fill="#040608"></path>
                <path d="M56.4242409,0.585211749 C57.0275516,0.760751421 57.0275516,0.760751421 57.6430505,0.939837346 C57.9518271,1.03272381 58.2606037,1.12561027 58.5787371,1.22131148 C58.72458,0.818278689 58.8704228,0.415245902 59.0206851,0 C62.0362035,0.229543847 64.6770721,0.972966967 67.5264567,1.88921619 C67.9912617,2.03742618 68.4560667,2.18563618 68.9349567,2.33833738 C69.9113544,2.65137922 70.8870603,2.96625762 71.8620999,3.28287093 C73.3593141,3.76666117 74.8608036,4.23777923 76.3628261,4.70872823 C77.3123285,5.01487743 78.2615491,5.32176961 79.2104556,5.62948258 C79.6611027,5.76908287 80.1117498,5.90868315 80.5760529,6.05251375 C80.989318,6.18960492 81.4025831,6.32669609 81.8283713,6.46794153 C82.3761866,6.6437395 82.3761866,6.6437395 82.9350687,6.82308893 C83.7697701,7.32786885 83.7697701,7.32786885 84.0292163,8.34848589 C84.0894419,8.68340358 84.1496675,9.01832127 84.2117181,9.36338798 C85.4995688,10.1542639 86.8006871,10.7735765 88.1892496,11.3989071 C87.9867382,12.8113194 87.795334,14.1158979 87.3053537,15.4699454 C85.3089936,16.0272068 83.9519664,15.6615905 82.0019783,15.0628415 C81.7102927,15.4658743 81.4186071,15.8689071 81.1180825,16.284153 C78.4085705,16.0059123 75.9399239,15.1180419 73.3891725,14.2772584 C72.6606604,14.0384927 72.6606604,14.0384927 71.917431,13.7949034 C70.8943859,13.4585994 69.8717848,13.1211472 68.8496031,12.7826228 C67.2793683,12.2639304 65.7064511,11.7525982 64.1332978,11.2414724 C63.1396037,10.9137993 62.1460779,10.5856929 61.1527387,10.2571081 C60.6799846,10.1044006 60.2072305,9.95169301 59.7201505,9.79435797 C59.2863362,9.64905478 58.8525219,9.50375158 58.4055617,9.35404526 C57.830194,9.16468701 57.830194,9.16468701 57.2432028,8.97150333 C56.3689974,8.54918033 56.3689974,8.54918033 55.9270495,7.32786885 C56.0728923,6.92483607 56.2187351,6.52180328 56.3689974,6.10655738 C56.0869966,6.03728612 55.8049959,5.96801486 55.5144496,5.89664447 C55.1492729,5.7979854 54.7840961,5.69932633 54.4078534,5.5976776 C53.8617973,5.45598638 53.8617973,5.45598638 53.3047099,5.31143272 C52.3914659,4.8852459 52.3914659,4.8852459 52.0082141,4.12033598 C51.9114087,2.69618892 52.586554,1.65260526 53.2753618,0.407103825 C54.5208355,-0.166535114 55.1195098,0.199999154 56.4242409,0.585211749 Z" id="Path" fill="#040608"></path>
            </g>
            <text id="STU" font-family="Silom" font-size="154" font-weight="bold" letter-spacing="-5" fill="#000000">
                <tspan x="0.25" y="187">STU</tspan>
            </text>
            <text id="PZ" font-family="Silom" font-size="154" font-weight="bold" letter-spacing="-10" fill="#000000">
                <tspan x="351.376618" y="187">PZ</tspan>
            </text>
        </g>
    </g>
</svg>