<?xml version="1.0" encoding="UTF-8"?>
<svg width="240px" height="240px" viewBox="0 0 240 240" version="1.1" xmlns="http://www.w3.org/2000/svg" xmlns:xlink="http://www.w3.org/1999/xlink">
    <title>Group 2</title>
    <g id="Page-1" stroke="none" stroke-width="1" fill="none" fill-rule="evenodd">
        <g id="Group-2">
            <rect id="Rectangle" x="0" y="0" width="240" height="240"></rect>
            <g id="clipart2867367" transform="translate(58.805369, 23.000000)" fill-rule="nonzero">
                <path d="M119.50114,36.6669442 C120.712216,37.5782353 121.602532,38.4616354 122.304075,39.7540984 C122.579846,43.7968979 122.139185,47.8118476 121.652589,51.8255154 C121.582502,52.4264049 121.512415,53.0272944 121.440205,53.6463926 C121.206208,55.6453977 120.967384,57.6438872 120.728548,59.642406 C120.558744,61.0810724 120.389961,62.5198401 120.221128,63.9586034 C119.810664,67.4511786 119.396592,70.9433832 118.981274,74.4354712 C118.497581,78.5036077 118.017481,82.5721019 117.537516,86.6406127 C116.681227,93.8980538 115.821673,101.155164 114.960278,108.412092 C114.124503,115.453191 113.29107,122.494521 112.460226,129.536115 C112.383368,130.187494 112.383368,130.187494 112.304959,130.852031 C112.228234,131.502289 112.228234,131.502289 112.149959,132.165683 C111.203388,140.187942 110.254705,148.209989 109.30499,156.231934 C108.969263,159.068099 108.634151,161.904326 108.299225,164.740572 C107.891385,168.193884 107.482323,171.647072 107.071734,175.100108 C106.862261,176.861949 106.653466,178.623853 106.445709,180.385867 C106.220614,182.294105 105.993552,184.202136 105.765965,186.110123 C105.667727,186.948734 105.667727,186.948734 105.567504,187.804286 C105.506226,188.314515 105.444947,188.824744 105.381812,189.350435 C105.329591,189.790879 105.277369,190.231323 105.223565,190.685114 C105.04141,191.879781 105.04141,191.879781 104.465988,194 C97.0603047,194 89.6546215,194 82.0245236,194 C83.6595152,180.011693 85.2954586,166.023481 86.9329744,152.035425 C87.6939153,145.535043 88.4544759,139.034623 89.2140695,132.534108 C90.8097226,118.88047 92.4111925,105.227442 94.0252873,91.5756426 C94.7650655,85.314731 95.4976568,79.0531856 96.2187318,72.790422 C96.687752,68.7193667 97.1631846,64.6489787 97.6440315,60.5790943 C97.9173082,58.2637006 98.1872644,55.9480796 98.4486124,53.6315155 C98.6865634,51.5225499 98.9334012,49.4146386 99.1874935,47.3072729 C99.277374,46.5482528 99.3639087,45.7888889 99.4467646,45.0291909 C99.5592737,44.0017733 99.6850369,42.975609 99.8114832,41.9495676 C99.8774373,41.3804047 99.9433914,40.8112419 100.011344,40.2248316 C100.635055,37.9871258 101.850915,36.5349544 103.998457,35.3480191 C108.617554,34.3079282 115.329258,34.5445011 119.50114,36.6669442 Z" id="Path" fill="#040708"></path>
                <path d="M53.5770906,34.8179645 C54.3017854,34.7981495 55.0264801,34.7783346 55.7731354,34.7579192 C58.2234153,35.0233165 59.4114636,35.6790556 61.3093259,37.1038251 C62.5792091,38.8584694 62.6631884,39.6188159 62.8312761,41.6816691 C62.8849555,42.3100515 62.938635,42.938434 62.9939411,43.5858584 C63.0482044,44.2822446 63.1024677,44.9786308 63.1583753,45.6961196 C63.2203528,46.4448255 63.2827754,47.1935002 63.3456031,47.9421459 C63.5185823,50.0190996 63.6851612,52.0964545 63.8507698,54.1739163 C64.0318092,56.4310696 64.2186907,58.6878133 64.4048365,60.9446132 C64.7344025,64.9503534 65.060085,68.9563499 65.38343,72.9625201 C65.8872564,79.204263 66.3975862,85.4455467 66.908813,91.6867785 C68.0339959,105.42681 69.1490365,119.167533 70.2619024,132.908415 C70.6861683,138.146342 71.1112934,143.38421 71.5366174,148.622064 C72.0021895,154.355722 72.4672794,160.089414 72.9321164,165.823123 C73.1279097,168.238164 73.3238584,170.653194 73.5199319,173.068215 C73.7480198,175.877889 73.9756822,178.687592 74.2030043,181.497318 C74.2863692,182.526884 74.3698808,183.556439 74.4535464,184.585984 C74.5671481,185.984211 74.6802276,187.382473 74.7931662,188.780746 C74.8266342,189.191175 74.8601022,189.601603 74.8945843,190.024469 C75.1194577,192.81885 75.1194577,192.81885 75.1194577,194 C67.7137745,194 60.3080913,194 52.6779935,194 C51.1020219,176.463697 49.6016875,158.923165 48.1676215,141.376545 C48.0088892,139.434419 47.8499813,137.492305 47.691038,135.550194 C47.1905718,129.433802 46.6909106,123.317355 46.1923518,117.200831 C45.6222368,110.206708 45.0492006,103.212793 44.4738037,96.2190364 C44.0241962,90.7519396 43.5772344,85.2846626 43.1322456,79.8172452 C42.8683024,76.5750306 42.603264,73.3329 42.3353957,70.0909584 C42.0848602,67.0580165 41.8376292,64.0248608 41.5928602,60.9915195 C41.5031252,59.8863742 41.4122377,58.7813076 41.3200514,57.6763335 C40.9103862,52.7587773 40.5177709,47.837298 40.3964322,42.9053823 C40.3775022,42.2536329 40.3585722,41.6018835 40.3390686,40.9303841 C40.6450705,38.8832413 41.3466606,38.0364265 42.8958168,36.5737705 C45.8828139,34.6761871 50.0808261,34.8807251 53.5770906,34.8179645 Z" id="Path" fill="#040708"></path>
                <path d="M19.6631471,38.5614754 C21.7216824,40.3579095 22.2949156,41.8986804 22.6097985,44.4622151 C22.7094479,45.2471186 22.7094479,45.2471186 22.8111104,46.0478788 C22.8794042,46.6214962 22.947698,47.1951136 23.0180613,47.7861134 C23.0942371,48.3964457 23.170413,49.006778 23.2488972,49.6356052 C23.4594265,51.3296379 23.6660037,53.0240343 23.8709256,54.718649 C24.0928889,56.5462005 24.319915,58.3732189 24.5463157,60.2003076 C24.9890409,63.7797138 25.4270869,67.3595935 25.8635822,70.9396484 C26.3719599,75.1077534 26.8850251,79.2753652 27.3983091,83.4429595 C28.3139523,90.8787589 29.2254353,98.314986 30.134538,105.751466 C31.016892,112.969104 31.9019892,120.18645 32.7902461,127.403474 C32.8449448,127.847901 32.8996435,128.292328 32.9559998,128.750222 C33.0106042,129.193876 33.0652086,129.637531 33.1214677,130.09463 C33.2314079,130.987883 33.3413471,131.881136 33.4512855,132.774389 C33.5055026,133.2149 33.5597197,133.655411 33.6155797,134.109271 C34.4616303,140.984275 35.3052508,147.859533 36.1485892,154.73482 C36.4543709,157.227473 36.7604958,159.720091 37.066865,162.212683 C37.5528582,166.166799 38.0378009,170.121021 38.5205712,174.075472 C38.7412091,175.882603 38.9623454,177.689678 39.1848637,179.496613 C39.4256779,181.454464 39.6645143,183.412511 39.9028243,185.370622 C39.9736853,185.943057 40.0445463,186.515492 40.1175546,187.105274 C40.2127023,187.892251 40.2127023,187.892251 40.3097722,188.695126 C40.3650843,189.147041 40.4203963,189.598956 40.4773844,190.064566 C40.5961784,191.372297 40.5941304,192.687699 40.5941304,194 C33.188445,194 25.7827618,194 18.1526639,194 C17.0649544,185.285774 15.9776899,176.571506 14.896106,167.856633 C14.8249292,167.283165 14.7537524,166.709696 14.6804188,166.11885 C14.3724822,163.637701 14.0645628,161.15655 13.7567496,158.675389 C12.5773781,149.169921 11.3925321,139.665043 10.2041362,130.160529 C9.08752049,121.229455 7.97491555,112.29796 6.86509549,103.366167 C6.13809747,97.5164266 5.40811505,91.6670152 4.67449675,85.8179764 C4.16276675,81.7357363 3.65471473,77.6531161 3.14937355,73.5702008 C2.85310573,71.1774286 2.55522852,68.7848503 2.25309821,66.3926998 C1.97231384,64.169219 1.69616812,61.9452893 1.4234553,59.7209566 C1.32394601,58.9158167 1.22281835,58.1108447 1.11981959,57.3060773 C0.617250857,53.372166 0.206130413,49.4346677 0.0750079875,45.4741932 C0.0502553517,44.8451373 0.0255027159,44.2160814 0,43.5679632 C0.408586019,41.3681831 1.34970737,40.6195794 3.19168778,39.2240437 C7.23098666,37.2137562 15.638466,36.2443713 19.6631471,38.5614754 Z" id="Path" fill="#040708"></path>
                <path d="M42.8958168,6.36065574 C44.3475614,7.87390042 45.1474949,8.89603765 45.3053971,10.932377 C44.2501261,12.8765193 42.6879105,13.364657 40.5941282,14.3114754 C40.5941282,15.1860656 40.5941282,16.0606557 40.5941282,16.9617486 C34.7136776,20.1858098 28.6592799,23.086752 22.5743955,25.9656896 C21.930413,26.2706858 21.2864304,26.575682 20.6229333,26.8899206 C20.0040777,27.18202 19.3852221,27.4741195 18.7476134,27.7750704 C16.7548369,28.742903 14.8169382,29.7815576 12.8963174,30.8657187 C11.0862331,31.5529645 9.57420618,30.7697121 7.79506506,30.2131148 C6.63509061,30.7260042 5.4832858,31.2550278 4.3425321,31.8032787 C2.55922505,31.4672704 1.77978282,31.1430609 0.710179717,29.7824454 C-0.0805318676,27.4649038 -0.0805318676,27.4649038 0.314576982,25.9726776 C1.47149371,25.2257548 2.64053684,24.6366727 3.91096548,24.0677937 C4.24327178,23.8218152 4.57557807,23.5758367 4.91795426,23.3224044 C5.00192171,21.9661504 5.00192171,21.9661504 4.91795426,20.6721311 C12.3720437,16.884097 19.8672828,13.1824913 27.437949,9.59546432 C28.0210149,9.318525 28.6040808,9.04158568 29.2048153,8.75625427 C29.7239048,8.51083094 30.2429943,8.26540762 30.7778138,8.01254723 C31.9231742,7.50754995 31.9231742,7.50754995 32.5382179,6.89071038 C34.2285205,6.79132514 34.2285205,6.79132514 35.9907509,6.89071038 C36.3705295,7.24054645 36.7503081,7.59038251 37.1415952,7.95081967 C37.5569781,7.68844262 37.9723609,7.42606557 38.4003312,7.1557377 C40.1626942,6.28991661 40.9479852,5.94659565 42.8958168,6.36065574 Z" id="Path" fill="#040608"></path>
                <path d="M73.465119,0.761953552 C74.2506377,0.990508562 74.2506377,0.990508562 75.0520254,1.22368084 C75.4540567,1.34462026 75.856088,1.46555969 76.270302,1.59016393 C76.4601914,1.06540984 76.6500807,0.540655738 76.8457242,2.84217094e-14 C80.7719697,0.29886917 84.210416,1.26681605 87.920353,2.45978484 C88.5255354,2.65275624 89.1307178,2.84572764 89.754239,3.04454666 C91.0255219,3.45213133 92.295904,3.86210723 93.5654186,4.27434202 C95.5148116,4.9042434 97.4697711,5.51764544 99.4254246,6.13082736 C100.661689,6.52943773 101.897587,6.92901547 103.133076,7.32966189 C103.719825,7.51142333 104.306574,7.69318477 104.911102,7.88045414 C105.449179,8.05894868 105.987256,8.23744323 106.541638,8.42134669 C107.254901,8.650238 107.254901,8.650238 107.982573,8.88375337 C109.069365,9.54098361 109.069365,9.54098361 109.407168,10.8698407 C109.485582,11.305908 109.563997,11.7419753 109.644787,12.1912568 C111.321586,13.2209878 113.01566,14.0273412 114.823587,14.8415301 C114.559914,16.6805098 114.310703,18.3790885 113.672742,20.1420765 C111.073455,20.8676384 109.306587,20.391601 106.767677,19.6120219 C106.387898,20.136776 106.008119,20.6615301 105.616832,21.2021858 C102.089011,20.8399127 98.8748002,19.6838934 95.5536876,18.589182 C94.6051552,18.2783059 94.6051552,18.2783059 93.6374605,17.9611495 C92.3054421,17.523277 90.9740017,17.0839098 89.6431074,16.6431465 C87.5986405,15.9678019 85.5506812,15.3020406 83.5024145,14.636548 C82.2086115,14.2099132 80.9150275,13.7827143 79.6216866,13.3548924 C79.0061544,13.1560651 78.3906222,12.9572379 77.7564376,12.7523855 C77.1916056,12.5631988 76.6267735,12.3740121 76.0448253,12.1790925 C75.2956889,11.9325455 75.2956889,11.9325455 74.5314184,11.6810178 C73.3931912,11.1311475 73.3931912,11.1311475 72.8177691,9.54098361 C73.0076584,9.01622951 73.1975477,8.49147541 73.3931912,7.95081967 C73.0260225,7.86062756 72.6588537,7.77043545 72.2805586,7.67751025 C71.8050935,7.54905482 71.3296285,7.42059939 70.8397554,7.28825137 C70.1287831,7.1037675 70.1287831,7.1037675 69.4034478,6.91555669 C68.2143918,6.36065574 68.2143918,6.36065574 67.7153929,5.36473275 C67.5893509,3.51047417 68.4683991,2.15171423 69.3652361,0.530054645 C70.9868596,-0.216830954 71.7663416,0.260401583 73.465119,0.761953552 Z" id="Path" fill="#040608"></path>
            </g>
        </g>
    </g>
</svg>